<svg width="50" height="90" viewBox="0 0 50 90" fill="none" xmlns="http://www.w3.org/2000/svg">
<path d="M0.967181 58.7822C0.830461 58.5163 0.686138 58.2505 0.557014 57.9771C0.420293 57.7036 0.298764 57.4226 0.177235 57.1491C-0.146145 55.9721 -0.0241493 54.7172 0.519856 53.6245C1.06386 52.5319 1.99167 51.6782 3.12576 51.2268C4.25985 50.7754 5.52055 50.7581 6.66662 51.1781C7.8127 51.5981 8.76367 52.4259 9.33752 53.5033L9.38309 53.4197C10.3728 55.5867 12.0696 57.3529 14.1952 58.4286C16.3207 59.5043 18.7488 59.8255 21.081 59.3396C23.4132 58.8537 25.511 57.5895 27.0301 55.7545C28.5493 53.9194 29.3995 51.6225 29.4415 49.2406C29.4834 46.8587 28.7145 44.5333 27.2608 42.6459C25.8072 40.7586 23.7552 39.4213 21.4416 38.8537C19.128 38.286 16.6901 38.5216 14.528 39.5218C12.3659 40.522 10.6079 42.2274 9.54259 44.3582C9.06952 45.3842 8.26031 46.218 7.24888 46.7215C6.23745 47.2251 5.08441 47.3682 3.98056 47.1272C2.87672 46.8862 1.88823 46.2756 1.17865 45.3964C0.469076 44.5172 0.0809675 43.422 0.0785116 42.2922C0.0746061 41.4988 0.264956 40.7164 0.632974 40.0135C2.66176 35.9095 6.0101 32.6057 10.1409 30.6321C14.2718 28.6584 18.9458 28.1293 23.4133 29.1295C27.8808 30.1297 31.8829 32.6013 34.7779 36.148C37.6728 39.6946 39.2927 44.1107 39.3779 48.688C39.463 53.2653 38.0084 57.7386 35.2474 61.3905C32.4864 65.0423 28.5789 67.661 24.1517 68.8267C19.7245 69.9924 15.034 69.6374 10.8326 67.8187C6.63124 66.0001 3.1624 62.8231 0.982387 58.7974L0.967181 58.7822Z" fill="#FEC06A"/>
<path d="M31.4406 33.6105C30.3241 30.8381 29.6936 28.8177 28.0834 25.2554C25.3945 19.3536 22.569 13.9987 19.7814 9.19832C19.4134 8.12251 19.4134 6.95487 19.7814 5.87906C20.0624 5.08354 20.5375 4.37077 21.1638 3.80546L22.6829 3.11426C22.6829 3.11426 24.6426 3.25859 25.311 3.38771C26.3668 3.60039 27.7719 4.48147 29.1847 7.54249C31.3976 11.4264 33.5674 15.5761 35.6941 19.9916C38.4134 25.6883 40.7376 31.2407 42.7124 36.5652C40.2059 38.3577 37.6994 40.1579 35.1549 41.8821C33.6054 38.7527 32.3901 35.9955 31.4406 33.6105Z" fill="#FEC06A"/>
<path d="M2.89642 14.2266L3.92941 12.9125C3.92941 12.9125 5.73717 12.153 6.39039 11.9479C7.42339 11.6441 9.07922 11.7808 11.7453 13.8468C15.4899 16.2774 19.3408 18.951 23.2526 21.8981C26.8478 24.6072 30.2253 27.3315 33.3851 30.071C31.1484 32.2789 29.1686 34.7327 27.4833 37.3855C26.8681 36.8842 26.2908 36.3905 25.7439 35.9271C23.4652 33.9827 21.9841 32.4788 18.9079 30.071C13.7961 26.0757 8.82856 22.6273 4.14209 19.6498C3.32328 18.8628 2.78896 17.8262 2.62297 16.7027C2.5053 15.8675 2.59934 15.016 2.89642 14.2266Z" fill="#FEC06A"/>
<path d="M44.2315 45.9989H44.2391C46.9783 45.9989 49.199 43.7783 49.199 41.039L49.199 4.95997C49.199 2.22068 46.9783 5.72205e-05 44.2391 5.72205e-05H44.2315C41.4922 5.72205e-05 39.2715 2.22068 39.2715 4.95997L39.2715 41.039C39.2715 43.7783 41.4922 45.9989 44.2315 45.9989Z" fill="#FEC06A"/>
<path d="M47.0344 40.4921L49.0092 34.7878C48.9788 49.7663 48.9434 64.7447 48.9029 79.7232L25.8655 90C26.1389 88.9746 26.4959 87.4707 26.7998 85.6402C27.5062 81.3942 27.9315 78.8725 26.7998 76.2976C26.1476 74.8634 25.1912 73.5882 23.997 72.5606C20.1992 69.1198 15.3001 69.0818 13.7278 69.135C20.4538 65.6563 26.2514 60.6209 30.6378 54.4483C35.0242 48.2757 37.8723 41.1445 38.9451 33.6484L47.0344 40.4921Z" fill="#FEC06A"/>
</svg>
